<svg xmlns="http://www.w3.org/2000/svg" fill="#BBBBBD" height="24" viewBox="0 -960 960 960" width="24"><path d="M480.307-217.826q-15.003 0-29.648-4.565-14.645-4.566-27.007-14.261-130.175-106.044-187.653-199.479-57.478-93.435-57.478-177.478 0-75.931 27.382-133.561 27.381-57.629 70.537-96.392 43.156-38.763 96.889-58.144 53.733-19.382 106.437-19.382t106.538 19.382q53.835 19.381 97.072 58.144t70.67 96.392q27.433 57.63 27.433 133.561 0 84.043-57.478 177.478T536.348-236.652q-12.249 9.695-26.643 14.261-14.394 4.565-29.398 4.565Zm-.187-300.304q42.199 0 71.779-29.7t29.58-71.899q0-42.199-29.7-71.779t-71.899-29.58q-42.199 0-71.779 29.7t-29.58 71.899q0 42.199 29.7 71.779t71.899 29.58ZM240-38.912q-25.165 0-43.322-18.157-18.157-18.156-18.157-43.322 0-25.957 18.157-43.718Q214.835-161.87 240-161.87h480q25.165 0 43.322 17.761 18.157 17.761 18.157 43.436 0 25.674-18.157 43.717Q745.165-38.912 720-38.912H240Z"/></svg>