<svg xmlns="http://www.w3.org/2000/svg" fill="#BBBBBD" height="24" viewBox="0 -960 960 960" width="24"><path d="m418.521-646.694-13.739 13.739q-17.826 17.826-42.935 17.826t-42.935-17.826q-17.826-17.827-17.826-42.936 0-25.108 17.826-42.935l117.87-117.87q18.261-18.261 43.218-18.261 24.957 0 43.218 18.261l117.87 117.87q17.826 17.827 17.826 42.935 0 25.109-17.826 42.936-17.261 17.261-42.653 17.543-25.391.283-43.217-16.978l-13.739-14.304v505.129q0 25.956-18.044 43.718-18.044 17.76-43.435 17.76-25.391 0-43.435-17.76-18.044-17.762-18.044-43.718v-505.129Z"/></svg>