<svg xmlns="http://www.w3.org/2000/svg" fill="#BBBBBD" height="24" viewBox="0 -960 960 960" width="24"><path d="m314.436-505.13 13.174 13.174q17.826 18.391 17.543 43.5-.282 25.109-18.108 42.935-17.827 18.392-43.218 18.392-25.392 0-43.218-18.392L123.304-522.826q-18.261-18.826-18.261-43.783 0-24.956 18.261-43.217l117.87-117.87q17.827-17.827 43.218-17.827 25.392 0 43.218 17.827 17.826 17.826 17.826 43.217 0 25.392-17.826 43.218l-13.174 13.174H585.13q51.218 0 87.087 35.87 35.87 35.869 35.87 87.087v323.565q0 25.956-18.043 43.717-18.044 17.761-43.435 17.761-25.957 0-43.718-17.761-17.761-17.761-17.761-43.717V-505.13H314.436Z"/></svg>