<svg xmlns="http://www.w3.org/2000/svg" fill="#BBBBBD" height="24" viewBox="0 -960 960 960" width="24"><path d="M251.913-181.565V-505.13q0-51.218 35.87-87.087 35.869-35.87 87.087-35.87h270.694l-13.174-13.174q-17.826-17.826-17.826-42.935t17.826-42.935q17.826-17.826 43.218-17.826 25.391 0 43.218 17.826l117.87 117.305q18.261 18.261 18.261 43.217 0 24.957-18.261 43.783l-117.87 117.305q-17.827 18.392-42.935 18.109-25.109-.282-42.936-18.674-17.826-17.826-17.826-42.935t17.826-43.5l12.609-12.609H374.87v323.565q0 25.956-17.761 43.717t-43.718 17.761q-25.391 0-43.435-17.761-18.043-17.761-18.043-43.717Z"/></svg>