<svg xmlns="http://www.w3.org/2000/svg" fill="#BBBBBD" height="24" viewBox="0 -960 960 960" width="24"><path d="M400-120.087q-25.165 0-43.322-17.761-18.157-17.761-18.157-43.717v-263.174q0-24.391 9.413-47 9.414-22.609 26.675-39.87L559.39-716.956h-18.608q-25.166 0-43.322-18.157-18.157-18.156-18.157-43.322 0-25.956 18.157-43.717 18.156-17.761 43.322-17.761h166.522q25.957 0 43.718 17.761 17.761 17.761 17.761 43.717v166.523q0 25.165-17.761 43.322-17.761 18.157-43.435 18.157-25.674 0-43.718-18.157-18.043-18.157-18.043-43.322v-18.609L461.479-446.827v265.262q0 25.956-18.157 43.717T400-120.087Z"/></svg>