<svg xmlns="http://www.w3.org/2000/svg" fill="#BBBBBD" height="24" viewBox="0 -960 960 960" width="24"><path d="M571.13-120.087q-25.956 0-43.717-17.761t-17.761-43.717v-265.174L325.305-630.521v18.609q0 25.391-18.044 43.435-18.043 18.044-43.435 18.044-25.956 0-43.717-18.044t-17.761-43.435v-166.523q0-25.956 17.761-43.717t43.717-17.761h166.523q25.391 0 43.435 17.761 18.044 17.761 18.044 43.717 0 25.392-18.044 43.435-18.044 18.044-43.435 18.044H411.74l184.782 185.347q17.261 17.261 26.674 39.87 9.413 22.609 9.413 47v263.174q0 25.956-18.043 43.717-18.044 17.761-43.436 17.761Z"/></svg>