<svg xmlns="http://www.w3.org/2000/svg" fill="#BBBBBD" height="24" viewBox="0 -960 960 960" width="24"><path d="M203.044-80.087q-51.574 0-87.266-35.691-35.692-35.692-35.692-87.266v-553.912q0-51.574 35.692-87.266 35.692-35.691 87.266-35.691h219.999q25.166 0 43.322 17.761 18.157 17.761 18.157 43.435 0 25.674-18.157 43.717-18.156 18.044-43.322 18.044H203.044v553.912h219.999q25.166 0 43.322 18.157 18.157 18.156 18.157 43.322 0 25.956-18.157 43.718-18.156 17.76-43.322 17.76H203.044Zm440.911-338.869H413.218q-25.957 0-43.718-18.157-17.761-18.156-17.761-43.322 0-25.956 17.761-43.717t43.718-17.761h230.737l-60.129-60.13q-18.261-18.511-18.261-44.06 0-25.549 18.261-43.528 18.261-18.543 43.369-18.261 25.109.283 43.37 18.544l166.696 166.696q17.696 18.261 17.696 42.652 0 24.391-17.696 42.652L671.565-271.087q-18.261 18.261-43.87 18.261-25.608 0-43.869-18.695-18.261-18.261-18.261-43.653 0-25.391 18.261-43.652l60.129-60.13Z"/></svg>