<svg xmlns="http://www.w3.org/2000/svg" fill="#BBBBBD" height="24" viewBox="0 -960 960 960" width="24"><path d="M480.593-261.174q23.749 0 40.274-16.637 16.524-16.638 16.524-40.319v-144.913q0-23.682-16.569-40.319Q504.253-520 480.673-520q-23.581 0-40.388 16.638-16.807 16.637-16.807 40.319v144.913q0 23.681 16.683 40.319 16.683 16.637 40.432 16.637Zm-.768-337.869q24.849 0 41.469-16.444 16.619-16.444 16.619-41.294 0-24.849-16.444-41.469t-41.294-16.62q-24.849 0-41.469 16.445-16.619 16.444-16.619 41.294 0 24.849 16.444 41.469 16.444 16.619 41.294 16.619ZM480-40.086q-91.336 0-171.864-34.35-80.529-34.35-139.939-93.761-59.411-59.41-93.76-139.939Q40.086-388.664 40.086-480q0-91.592 34.408-172.063 34.409-80.471 94.012-140.034 59.603-59.562 139.938-93.689Q388.78-919.913 480-919.913q91.582 0 172.071 34.117 80.488 34.118 140.048 93.677 59.559 59.56 93.677 140.075 34.117 80.515 34.117 172.127 0 91.613-34.127 171.71-34.127 80.097-93.689 139.7-59.563 59.603-140.034 94.012Q571.592-40.086 480-40.086Z"/></svg>