<svg xmlns="http://www.w3.org/2000/svg" fill="#BBBBBD" height="24" viewBox="0 -960 960 960" width="24"><path d="M418.521-101.565v-92.434H274.218q-25.261 0-48.588-10.13-23.326-10.131-41.152-28.826l-61.608-67.783q-17.827-18.695-17.109-44.37.717-25.674 19.413-43.065l60.739-56q16.826-16.392 38.5-24.587 21.674-8.196 45.066-8.196h149.042v-80H181.565q-25.956 0-43.717-18.044-17.761-18.043-17.761-43.435v-160q0-25.956 17.761-43.717t43.717-17.761h236.956v-18.522q0-25.956 18.044-43.717T480-919.913q25.391 0 43.435 17.761 18.044 17.761 18.044 43.717v18.522h146.173q24.391 0 47 9.13 22.609 9.131 39.87 26.957l62.174 61.608q18.261 18.827 18.261 43.783 0 24.957-18.261 43.218l-62.174 62.174q-17.261 17.261-39.87 26.674-22.609 9.413-47 9.413H541.479v80h236.956q25.956 0 43.717 17.761t17.761 43.718v160q0 25.391-17.761 43.435-17.761 18.043-43.717 18.043H541.479v92.434q0 25.956-18.044 43.718-18.044 17.76-43.435 17.76-25.391 0-43.435-17.76-18.044-17.762-18.044-43.718Z"/></svg>