<svg xmlns="http://www.w3.org/2000/svg" fill="#BBBBBD" height="24" viewBox="0 -960 960 960" width="24"><path d="m600.739-123.694-15.087 43.39q-5.565 17.826-21.108 29.022Q549-40.087 529.174-40.087q-31.087 0-49.131-25.391-18.044-25.392-7.913-54.913l142.217-408.391q7.13-20.957 25.239-33.935 18.109-12.979 41.066-12.979H731q22.957 0 41.066 12.979 18.108 12.978 25.239 33.935l142.217 406.391q10.13 30.522-7.913 56.413-18.044 25.891-50.566 25.891-20.391 0-36.652-11.695-16.261-11.696-23.392-30.522l-13.521-41.39H600.739ZM323.435-347.738 174.348-198.652q-18.826 18.826-43.218 18.544-24.391-.283-42.652-19.109-18.826-18.261-18.826-43.153 0-24.891 18.826-43.717L239.13-437.174q-44.826-48.391-79.696-101-34.869-52.608-53.869-98.782h138.479q13.608 25.217 35.413 55.63 21.804 30.413 46.108 57.717 32.739-36.435 65.478-89.043 32.739-52.609 56.087-104.304H53q-25.957 0-43.718-18.044-17.76-18.043-17.76-43.435 0-25.956 17.76-43.717Q27.043-839.913 53-839.913h224.565v-18.522q0-25.956 18.043-43.717 18.044-17.761 43.435-17.761 25.957 0 43.718 17.761 17.761 17.761 17.761 43.717v18.522h225.13q25.957 0 43.718 17.761 17.76 17.761 17.76 43.717 0 25.392-17.76 43.435-17.761 18.044-43.718 18.044h-45.173q-23 70.608-69.435 147.195-46.435 76.587-100.174 134.022l59.39 61.825-45.217 129.653-101.608-103.477Zm316.826 108.217h127.13l-63.348-184.565-63.782 184.565Z"/></svg>