<svg xmlns="http://www.w3.org/2000/svg" fill="#BBBBBD" height="24" viewBox="0 -960 960 960" width="24"><path d="M122.087-304.825q-23.827-18.826-24.11-48.783-.282-29.957 24.11-48.218 16.826-12.695 37.369-12.978 20.544-.283 37.37 12.978l282.609 215.435 283.739-215.435q16.826-12.695 37.087-12.978 20.261-.283 37.087 12.413 24.392 18.261 24.392 48.501 0 30.239-23.827 49.065L554.174-88.39q-34.087 25.957-75.022 25.957T404.695-88.39L122.087-304.825Zm282.608-37.61-219.13-168.217q-48.783-36.522-48.783-96.718 0-60.196 48.783-97.283l219.13-167.652q34.087-25.957 74.74-25.957 40.652 0 74.739 25.957l219.13 167.652q48.783 37.087 48.783 97.283t-48.783 96.718l-219.13 168.217q-34.087 25.392-74.739 25.392-40.653 0-74.74-25.392Z"/></svg>