<svg xmlns="http://www.w3.org/2000/svg" fill="#BBBBBD" height="24" viewBox="0 -960 960 960" width="24"><path d="M480.408-29.739q-92.779 0-174.9-35.428-82.122-35.428-143.163-96.565-61.041-61.138-96.54-143.407-35.5-82.269-35.5-175.065 0-92.796 35.427-174.885 35.428-82.09 96.565-143.131 61.138-61.041 143.407-96.541 82.27-35.5 175.065-35.5 92.796 0 174.984 35.368 82.187 35.369 142.892 96.664 60.705 61.294 96.161 143.466 35.455 82.171 35.455 174.967t-35.324 174.885q-35.324 82.09-96.282 143.131-60.959 61.041-143.316 96.541t-174.931 35.5Zm-40.712-124.957v-81.174q-33.305 0-57.637-24.113-24.333-24.113-24.333-57.974V-358L161.262-554.609q-3 18.355-5.5 36.71t-2.5 36.958q0 124.971 81.543 218.456 81.543 93.484 204.891 107.789Zm282.13-104.913q20.869-21.87 36.927-48.206 16.058-26.336 26.869-54.521 10.812-28.186 16.247-58.022 5.435-29.835 5.435-61.168 0-101.267-55.174-183.935-55.174-82.669-148.652-118.408v15.48q0 33.56-24.415 57.714-24.414 24.154-58.569 24.154h-80.798v82.439q0 16.604-11.935 28.539-11.935 11.934-29.104 11.934h-83.309v82.044H562.38q16.423 0 28.761 11.935 12.337 11.934 12.337 28.513v124.638h40.57q27.473 0 48.838 15.771 21.366 15.771 28.94 41.099Z"/></svg>