<svg xmlns="http://www.w3.org/2000/svg" fill="#BBBBBD" height="24" viewBox="0 -960 960 960" width="24"><path d="M480-440q-17 0-28.5-11.5T440-480q0-17 11.5-28.5T480-520q17 0 28.5 11.5T520-480q0 17-11.5 28.5T480-440Zm0 399.913q-91.336 0-171.864-34.35-80.529-34.349-139.939-93.76-59.411-59.41-93.76-139.939Q40.086-388.664 40.086-480q0-91.592 34.408-172.063 34.409-80.471 94.012-140.034 59.603-59.562 139.938-93.689Q388.78-919.913 480-919.913q91.582 0 172.071 34.117 80.488 34.118 140.048 93.677 59.559 59.56 93.677 140.075 34.117 80.515 34.117 172.127 0 91.613-34.127 171.71-34.127 80.097-93.689 139.7-59.563 59.603-140.034 94.012Q571.592-40.086 480-40.086Zm-.129-122.957q133.25 0 225.168-91.788 91.917-91.788 91.917-225.039 0-133.25-91.788-225.168-91.788-91.917-225.039-91.917-133.25 0-225.168 91.788-91.917 91.788-91.917 225.039 0 133.25 91.788 225.168 91.788 91.917 225.039 91.917Zm.129 1.696q-134.174 0-226.413-92.239T161.348-480q0-134.174 92.239-226.413T480-798.652q134.174 0 226.413 92.239T798.652-480q0 134.174-92.239 226.413T480-161.348Zm65.87-219q11.498-5.684 19.798-13.984 8.3-8.3 13.984-19.798l99.652-245.74q4-9.434-3-16.434-7-7-16.434-3l-245.74 99.652q-11.498 5.684-19.798 13.984-8.3 8.3-13.984 19.798l-99.652 245.74q-4 9.434 3 16.434 7 7 16.434 3l245.74-99.652Z"/></svg>