<svg xmlns="http://www.w3.org/2000/svg" fill="#BBBBBD" height="24" viewBox="0 -960 960 960" width="24"><path d="M480.565-103.043q-160.087 0-268.804-108.435Q103.043-319.913 103.043-480q0-117.609 62.261-214.152 62.261-96.544 180.478-139.37 28.566-10 52.131-8.565 23.565 1.435 39.13 14.304 16.131 12.304 23.544 33.891 7.413 21.587 3.239 53.196.261 13.826-.739 25.456-1 11.631-1 22.066 0 96.391 68.913 164.304t166.305 67.913q11.565 0 23.261.066 11.696.065 23.391.326 32.478-4.174 53.935 3.609 21.456 7.782 32.76 24.217 11.87 16.435 12.587 39.087.718 22.652-9.717 50.782-43.131 106.392-139.131 173.109-96 66.718-213.826 66.718Z"/></svg>