<svg xmlns="http://www.w3.org/2000/svg" fill="#FF7A75" height="24" viewBox="0 -960 960 960" width="24"><path d="M479.865-73.782q-18.995 0-37.111-6-18.116-6-33.58-19.566-73.131-64.434-127.479-123.934-54.347-59.5-90.195-115.283-35.848-55.783-53.631-109.978-17.782-54.196-17.782-107.587 0-157.321 106.534-261.052Q333.156-920.913 480-920.913t253.379 103.731Q839.913-713.451 839.913-556.13q0 53.391-17.782 107.587-17.783 54.195-53.631 109.978-35.848 55.783-90.195 115.283-54.348 59.5-127.479 123.935-15.54 13.565-33.753 19.565-18.212 6-37.208 6ZM480-467.74q38.13 0 65.196-27.065Q572.261-521.87 572.261-560q0-38.13-27.065-65.196Q518.13-652.261 480-652.261q-38.13 0-65.196 27.065Q387.739-598.13 387.739-560q0 38.13 27.065 65.196Q441.87-467.739 480-467.739Z"/></svg>