<svg xmlns="http://www.w3.org/2000/svg" fill="#BBBBBD" height="24" viewBox="0 -960 960 960" width="24"><path d="M325.13-533.391h-31q-19.739 0-34.108-14.246-14.37-14.246-14.37-34.391 0-20.146 14.37-34.233 14.369-14.087 34.108-14.087h31v-31q0-19.739 14.132-34.108 14.132-14.37 34.109-14.37 19.977 0 34.346 14.37 14.37 14.369 14.37 34.108v31h30.434q20.078 0 34.278 14.132 14.2 14.131 14.2 34.109 0 19.977-14.2 34.346-14.2 14.37-34.278 14.37h-30.434v30.434q0 20.078-14.246 34.278t-34.391 14.2q-20.146 0-34.233-14.2-14.087-14.2-14.087-34.278v-30.434Zm48.479 240.478q-120.533 0-204.528-84.028-83.994-84.028-83.994-204.609 0-120.58 84.028-204.494 84.028-83.913 204.608-83.913 120.581 0 204.494 83.995t83.913 204.527q0 46.131-11.934 85.435-11.935 39.304-33.674 69.609l215.739 216.304q17.261 17.826 17.261 42.922 0 25.097-17.544 42.948-17.995 17.261-43.161 17.261-25.165 0-42.991-17.261L531.919-338.956q-29.702 20.739-71.224 33.391-41.521 12.652-87.086 12.652Zm-.233-122.957q70.245 0 118.021-47.543 47.776-47.544 47.776-117.789t-47.776-118.021q-47.776-47.776-118.021-47.776-70.246 0-117.789 47.776-47.543 47.776-47.543 118.021t47.543 117.789q47.543 47.543 117.789 47.543Z"/></svg>